{"glyphs":{":":{"x_min":0,"x_max":188,"ha":188,"o":"m 175 369 q 170 346 156 333 q 143 320 121 320 q 94 320 80 338 q 66 355 72 384 q 76 404 92 418 q 107 431 128 431 q 151 431 166 414 q 180 396 175 369 z m 116 73 q 111 50 98 37 q 84 24 62 24 q 35 24 21 42 q 7 59 13 88 q 17 108 32 122 q 48 135 69 135 q 92 135 106 118 q 121 100 116 73 z"},"$":{"x_min":0,"x_max":460,"ha":460,"o":"m 335 683 q 374 678 404 666 q 434 655 454 638 q 449 604 446 574 q 443 543 443 509 q 418 499 388 504 q 386 566 370 596 q 354 625 325 634 q 311 568 298 507 q 286 446 275 386 q 305 365 335 343 q 365 321 388 294 q 410 266 422 232 q 433 198 425 153 q 419 116 400 86 q 380 56 351 35 q 322 14 284 2 q 246 -9 202 -9 l 187 -93 q 173 -92 160 -88 q 148 -84 140 -74 l 153 -6 q 102 1 66 19 q 31 37 2 63 q 13 98 21 133 q 29 168 31 202 q 43 207 58 208 q 73 208 85 204 q 80 132 98 94 q 115 55 163 44 l 213 306 q 186 325 160 346 q 133 367 114 394 q 95 421 86 455 q 77 489 85 535 q 96 602 148 642 q 200 682 285 685 l 297 748 q 312 748 324 744 q 336 740 345 729 z m 276 638 q 234 635 208 612 q 181 589 173 541 q 167 501 185 472 q 203 443 234 417 z m 211 39 q 256 39 288 66 q 320 92 328 136 q 332 160 328 180 q 324 200 314 217 q 303 234 288 248 q 272 263 254 277 z"},"?":{"x_min":0,"x_max":449,"ha":449,"o":"m 161 671 q 178 686 217 700 q 256 714 303 714 q 378 714 416 674 q 453 635 440 569 q 433 537 418 512 q 402 487 382 466 q 362 444 339 424 q 316 403 296 380 q 276 358 260 331 q 244 304 238 269 q 235 257 234 236 q 232 215 234 201 q 225 196 218 194 q 210 193 201 193 q 188 204 181 238 q 174 272 182 315 q 192 365 216 399 q 241 433 268 460 q 294 488 317 514 q 340 541 346 576 q 354 617 340 645 q 327 673 288 673 q 254 673 229 644 q 204 614 183 544 q 167 544 158 546 q 148 548 139 554 q 144 572 148 586 q 152 601 154 614 q 157 627 158 640 q 160 654 161 671 z m 230 41 q 225 18 212 5 q 198 -8 176 -8 q 149 -8 135 10 q 121 27 127 56 q 131 76 146 90 q 162 103 183 103 q 206 103 220 86 q 235 68 230 41 z"},"<":{"x_min":0,"x_max":435,"ha":435,"o":"m 381 14 q 382 0 378 -16 q 373 -31 365 -38 q 320 2 280 38 q 239 73 200 106 q 160 140 120 172 q 80 205 37 240 q 35 251 38 264 q 40 278 51 291 l 444 563 q 458 560 468 552 q 479 545 484 534 l 86 260 z"},"'":{"x_min":0,"x_max":198,"ha":198,"o":"m 223 669 q 212 634 199 588 q 186 543 170 477 q 158 477 148 479 q 138 481 129 487 q 137 540 143 592 q 149 643 151 693 q 164 695 180 701 q 197 707 208 714 q 219 709 224 698 q 228 686 223 669 z"},"=":{"x_min":0,"x_max":505,"ha":505,"o":"m 495 362 q 493 332 479 310 q 431 310 377 310 q 323 310 268 310 q 212 309 156 308 q 101 308 50 307 q 48 341 63 362 z m 467 197 q 465 167 451 145 q 403 145 349 145 q 295 145 240 144 q 184 144 128 144 q 73 143 22 142 q 20 176 35 197 z"},"a":{"x_min":0,"x_max":483,"ha":483,"o":"m 364 147 q 358 118 355 101 q 352 84 353 75 q 354 66 358 63 q 363 60 371 60 q 382 60 394 66 q 406 73 426 90 q 433 83 437 76 q 441 68 444 59 q 420 31 390 11 q 359 -9 333 -9 q 299 -9 284 8 q 268 24 265 48 q 262 72 268 99 q 274 126 283 147 l 282 147 q 268 119 248 92 q 228 64 204 42 q 181 19 154 5 q 128 -9 100 -9 q 50 -9 29 41 q 8 91 30 202 q 42 260 67 308 q 92 357 128 392 q 163 427 206 447 q 250 467 299 467 q 313 467 328 464 q 344 462 355 458 q 370 458 386 460 q 402 462 412 467 q 416 465 420 461 q 423 457 424 447 q 425 437 423 419 q 421 401 414 371 z m 335 406 q 309 416 274 416 q 243 416 219 404 q 195 391 177 369 q 159 347 146 316 q 134 285 127 248 q 109 163 118 118 q 126 72 156 72 q 169 72 190 90 q 212 108 235 142 q 258 176 280 225 q 303 274 318 336 z"},"L":{"x_min":0,"x_max":545,"ha":545,"o":"m 287 45 q 329 45 358 52 q 386 58 408 73 q 429 88 446 112 q 462 137 480 172 q 494 170 504 165 q 515 160 524 150 q 491 86 471 -3 q 457 -2 435 -2 q 413 -1 388 0 q 362 0 334 0 q 306 0 279 0 q 250 0 218 0 q 186 0 153 0 q 120 -1 88 -2 q 55 -2 25 -3 q 26 8 27 18 q 28 29 32 40 q 54 42 68 48 q 83 53 92 64 q 101 76 106 95 q 111 114 116 143 l 188 554 q 196 601 182 616 q 168 631 130 636 q 128 646 128 657 q 127 668 128 679 q 156 677 186 676 q 215 676 246 676 q 277 676 312 676 q 346 676 375 678 q 375 654 367 636 q 344 633 330 628 q 315 623 306 612 q 296 602 290 584 q 284 567 280 541 l 209 133 q 204 105 204 88 q 204 71 212 62 q 220 52 236 48 q 253 45 281 45 z"},"3":{"x_min":0,"x_max":422,"ha":422,"o":"m 393 367 q 385 327 348 288 q 312 250 252 218 q 282 213 306 198 q 331 183 346 158 q 361 134 366 100 q 370 66 361 23 q 351 -21 326 -56 q 300 -92 262 -118 q 225 -143 177 -157 q 129 -171 74 -171 q 41 -171 14 -164 q -14 -157 -31 -143 q -30 -117 -10 -106 q 4 -114 26 -118 q 47 -123 79 -123 q 150 -123 200 -86 q 251 -50 265 16 q 271 47 266 72 q 262 98 244 116 q 227 135 198 146 q 168 156 125 156 q 118 162 115 173 q 112 184 115 196 q 273 246 295 363 q 304 409 286 437 q 267 465 226 465 q 187 465 159 432 q 131 400 105 321 q 91 319 77 321 q 63 323 52 328 q 63 357 68 392 q 73 426 75 458 q 108 483 150 496 q 193 509 238 509 q 279 509 311 500 q 343 490 364 472 q 384 453 392 426 q 400 400 393 367 z"},";":{"x_min":0,"x_max":211,"ha":211,"o":"m 189 369 q 184 346 170 333 q 157 320 135 320 q 108 320 94 338 q 80 355 86 384 q 90 404 106 418 q 121 431 142 431 q 165 431 180 414 q 194 396 189 369 z m 108 103 q 125 93 130 70 q 136 47 128 8 q 119 -40 84 -90 q 49 -141 -1 -181 q -13 -181 -22 -175 q -30 -169 -35 -160 q -8 -135 14 -108 q 35 -80 44 -56 q 52 -32 44 -14 q 37 4 6 12 q 6 27 10 46 q 14 64 21 75 q 42 77 68 85 q 93 93 108 103 z"},"J":{"x_min":0,"x_max":336,"ha":336,"o":"m 200 554 q 204 575 204 590 q 203 604 196 614 q 190 623 176 628 q 163 633 140 636 q 135 653 138 679 q 159 677 190 676 q 222 676 254 676 q 275 676 291 676 q 307 676 321 676 q 335 677 349 678 q 363 678 381 679 q 380 654 373 636 q 353 633 340 628 q 326 622 317 612 q 308 602 302 586 q 296 569 292 544 l 218 120 q 206 50 191 -4 q 176 -57 148 -100 q 121 -143 77 -179 q 33 -215 -36 -249 q -44 -244 -48 -235 q -52 -226 -52 -215 q -21 -193 6 -168 q 32 -144 52 -114 q 73 -84 88 -46 q 102 -9 110 39 z"},"V":{"x_min":0,"x_max":655,"ha":655,"o":"m 631 676 q 656 676 676 676 q 696 677 725 679 q 725 657 716 636 q 704 630 695 623 q 686 616 676 602 q 665 589 652 567 q 640 545 622 510 q 557 383 489 258 q 421 132 343 0 q 335 -5 324 -6 q 313 -8 302 -6 q 285 67 268 140 q 251 213 234 282 q 217 351 201 414 q 185 476 171 529 q 162 561 156 581 q 149 601 142 612 q 134 623 126 628 q 117 634 104 637 q 100 655 103 679 q 137 677 162 676 q 188 676 218 676 q 251 676 280 676 q 308 677 343 679 q 343 670 341 658 q 339 646 334 635 q 307 632 291 628 q 275 623 268 612 q 261 600 263 579 q 265 558 274 523 q 299 432 322 338 q 345 244 367 141 q 423 236 473 329 q 523 422 571 522 q 585 552 592 571 q 599 590 596 602 q 593 615 580 622 q 567 630 541 636 q 537 655 540 679 q 561 677 582 676 q 602 676 631 676 z"},"\"":{"x_min":0,"x_max":334,"ha":334,"o":"m 223 669 q 212 634 199 588 q 186 543 170 477 q 158 477 148 479 q 138 481 129 487 q 137 540 143 592 q 149 643 151 693 q 164 695 180 701 q 197 707 208 714 q 219 709 224 698 q 228 686 223 669 z m 359 669 q 348 634 335 588 q 322 543 306 477 q 294 477 284 479 q 274 481 265 487 q 273 540 279 592 q 285 643 287 693 q 300 695 316 701 q 333 707 344 714 q 355 709 360 698 q 364 686 359 669 z"},"7":{"x_min":0,"x_max":404,"ha":404,"o":"m 197 411 q 175 411 160 408 q 145 406 133 400 q 121 393 111 380 q 101 367 91 346 q 64 346 51 358 q 63 391 72 430 q 82 468 87 503 q 108 502 132 502 q 157 501 181 500 q 205 500 227 500 q 249 500 267 500 q 285 500 300 500 q 316 500 332 500 q 349 501 370 502 q 390 502 417 503 q 429 494 431 471 q 377 393 340 340 q 304 286 279 248 q 254 210 239 184 q 224 158 212 136 q 198 110 189 84 q 180 59 174 30 q 167 2 163 -32 q 159 -66 156 -108 q 136 -118 114 -136 q 91 -154 79 -170 q 70 -168 60 -156 q 51 -144 51 -110 q 51 -73 64 -31 q 76 11 108 70 q 141 129 197 211 q 253 293 339 411 z"},"S":{"x_min":0,"x_max":460,"ha":460,"o":"m 298 685 q 350 685 390 672 q 429 658 454 638 q 449 604 446 574 q 443 543 443 509 q 418 499 388 504 q 386 582 360 610 q 335 639 291 639 q 242 639 212 616 q 181 594 173 541 q 167 501 186 472 q 204 442 236 416 q 267 391 304 366 q 340 342 370 312 q 401 282 418 244 q 434 206 425 153 q 419 117 400 87 q 380 57 351 36 q 322 14 286 2 q 249 -9 209 -9 q 171 -9 140 -4 q 110 1 86 10 q 61 20 40 34 q 20 47 2 63 q 13 98 21 133 q 29 168 31 202 q 43 207 58 208 q 73 208 85 204 q 80 116 108 78 q 135 39 211 39 q 256 39 288 66 q 320 92 328 136 q 336 179 318 209 q 301 239 270 264 q 240 289 204 312 q 167 336 137 366 q 107 396 91 436 q 75 477 85 535 q 97 604 152 644 q 207 685 298 685 z"},"}":{"x_min":0,"x_max":322,"ha":322,"o":"m 126 741 q 184 721 214 694 q 244 667 256 636 q 267 604 264 570 q 261 535 253 500 q 245 465 237 432 q 229 398 230 369 q 231 340 246 316 q 260 293 297 278 q 300 265 295 246 q 252 234 228 208 q 205 182 192 148 q 180 113 175 72 q 170 32 164 -10 q 159 -52 150 -93 q 140 -134 118 -169 q 97 -204 60 -231 q 23 -258 -37 -271 q -40 -262 -41 -254 q -42 -246 -40 -238 q 2 -230 25 -208 q 48 -185 60 -152 q 71 -120 74 -80 q 77 -41 80 0 q 83 42 89 83 q 95 124 112 158 q 128 193 159 220 q 190 246 243 259 q 195 272 174 295 q 152 318 148 347 q 143 376 150 410 q 158 443 168 478 q 179 513 188 547 q 197 581 194 612 q 192 642 174 667 q 157 692 114 708 q 116 718 118 727 q 121 736 126 741 z"},"Z":{"x_min":0,"x_max":540,"ha":540,"o":"m 259 45 q 305 45 336 49 q 366 53 388 66 q 409 80 425 105 q 441 130 459 172 q 490 166 509 148 q 496 117 484 77 q 472 37 465 -3 q 429 -2 397 -2 q 365 -1 334 0 q 303 0 272 0 q 242 0 208 0 q 173 0 145 0 q 117 0 92 0 q 67 -1 42 -2 q 17 -2 -13 -3 q -23 14 -22 38 q 100 185 214 332 q 328 480 439 632 l 307 632 q 274 632 250 627 q 225 622 206 608 q 186 594 170 569 q 154 544 138 503 q 105 506 86 522 q 99 551 111 594 q 123 637 129 679 q 159 678 186 678 q 213 677 240 676 q 267 676 296 676 q 326 676 361 676 q 386 676 410 676 q 433 676 456 676 q 480 677 505 678 q 530 678 560 679 q 573 664 573 638 q 460 484 347 338 q 234 191 114 45 z"},"x":{"x_min":0,"x_max":464,"ha":464,"o":"m 354 392 q 343 392 330 380 q 316 367 302 346 q 289 325 276 298 q 262 272 251 244 q 265 199 278 162 q 290 126 302 99 q 313 74 322 67 q 331 60 342 60 q 353 60 365 67 q 377 74 397 91 q 409 78 415 59 q 391 31 360 11 q 330 -9 301 -9 q 269 -9 253 2 q 237 14 226 40 q 215 66 205 94 q 195 122 185 151 q 171 123 154 94 q 136 66 116 43 q 95 20 72 6 q 50 -9 27 -9 q 9 -9 -2 -6 q -12 -3 -22 5 q -14 28 -9 60 q -4 91 -4 120 q 4 125 16 128 q 28 130 40 129 q 42 94 48 85 q 53 76 63 76 q 73 76 86 86 q 99 97 113 115 q 127 133 140 157 q 154 181 166 208 q 156 240 148 272 q 139 303 133 330 q 125 365 107 378 q 89 390 51 388 q 48 409 56 426 q 68 427 84 432 q 100 436 116 442 q 132 448 146 454 q 159 461 167 467 q 182 464 190 454 q 197 443 204 414 q 211 386 218 358 q 225 331 233 305 q 247 333 264 362 q 282 391 302 414 q 323 437 346 452 q 368 467 392 467 q 411 467 424 462 q 437 458 448 449 q 437 426 430 394 q 423 361 421 333 q 404 323 379 325 q 378 347 376 360 q 374 374 371 381 q 368 388 364 390 q 360 392 354 392 z"},")":{"x_min":0,"x_max":295,"ha":295,"o":"m 245 230 q 232 156 210 92 q 189 27 157 -33 q 125 -93 80 -152 q 36 -210 -23 -271 q -46 -276 -59 -263 q -13 -206 22 -151 q 57 -96 84 -36 q 110 23 128 88 q 147 153 160 230 q 186 382 176 504 q 166 625 118 730 q 132 742 151 741 q 221 604 244 480 q 268 355 245 230 z"},"&":{"x_min":0,"x_max":709,"ha":709,"o":"m 617 88 q 635 78 645 58 q 627 27 602 9 q 576 -9 541 -9 q 528 -9 516 -7 q 504 -5 492 1 q 479 7 464 18 q 450 30 432 49 q 384 21 334 6 q 283 -9 232 -9 q 166 -9 124 9 q 81 27 58 56 q 34 85 28 123 q 23 161 30 200 q 37 240 54 271 q 70 302 92 326 q 115 350 142 368 q 169 387 198 403 q 174 459 170 502 q 166 546 173 588 q 177 612 190 635 q 202 658 224 676 q 247 694 280 706 q 312 717 356 717 q 395 717 423 706 q 451 696 468 678 q 485 660 491 637 q 497 614 492 589 q 484 548 466 520 q 447 492 422 471 q 396 450 365 434 q 334 419 302 404 q 317 376 338 344 q 358 311 384 271 q 414 225 438 192 q 461 159 479 136 q 502 162 518 192 q 535 222 542 257 q 549 294 547 318 q 545 343 536 358 q 527 373 511 380 q 495 386 474 387 q 466 404 468 424 q 481 426 496 430 q 511 435 526 441 q 540 447 553 454 q 566 461 574 468 q 616 452 626 412 q 637 373 625 311 q 614 250 582 198 q 551 146 506 105 q 530 79 544 72 q 559 64 571 64 q 583 64 594 69 q 605 74 617 88 z m 253 590 q 248 563 252 530 q 257 498 281 447 q 327 472 362 504 q 397 535 407 585 q 415 630 398 652 q 380 673 343 673 q 305 673 282 650 q 259 626 253 590 z m 250 41 q 292 41 331 51 q 370 61 405 80 q 385 105 360 138 q 336 172 304 218 q 276 259 255 294 q 234 329 218 359 q 180 334 152 298 q 125 263 115 206 q 109 172 115 142 q 121 112 138 90 q 155 67 183 54 q 211 41 250 41 z"},"_":{"x_min":0,"x_max":500,"ha":500,"o":"m 406 -92 q 404 -122 390 -144 q 342 -144 288 -144 q 234 -144 178 -144 q 123 -145 68 -146 q 12 -146 -39 -147 q -41 -113 -26 -92 z"},"v":{"x_min":0,"x_max":476,"ha":476,"o":"m 391 468 q 419 457 434 433 q 449 409 449 365 q 449 336 438 300 q 426 265 398 220 q 369 175 322 119 q 274 63 202 -9 q 174 -11 154 0 q 148 94 134 179 q 121 264 106 326 q 101 344 96 356 q 92 369 84 376 q 77 384 65 386 q 53 389 34 388 q 34 392 35 405 q 36 418 39 426 q 64 429 94 442 q 123 455 139 467 q 153 462 162 456 q 170 449 176 436 q 181 424 185 405 q 189 386 195 356 q 202 320 208 282 q 214 244 219 208 q 224 171 228 137 q 231 103 233 76 q 297 151 328 212 q 359 272 359 309 q 359 348 345 365 q 331 382 298 387 q 290 404 292 424 q 305 428 320 434 q 335 439 348 445 q 362 451 374 457 q 385 463 391 468 z"},"O":{"x_min":0,"x_max":721,"ha":721,"o":"m 426 685 q 498 685 558 660 q 617 634 656 585 q 694 536 708 463 q 722 390 704 296 q 692 233 660 178 q 628 122 580 80 q 533 39 471 15 q 409 -9 337 -9 q 262 -9 203 19 q 144 47 106 98 q 69 148 56 218 q 42 289 59 375 q 71 440 104 496 q 138 553 186 595 q 235 637 296 661 q 357 685 426 685 z m 407 641 q 362 641 322 620 q 282 600 250 564 q 218 529 196 482 q 173 435 163 382 q 149 311 156 248 q 162 185 186 138 q 211 90 254 62 q 296 35 355 35 q 404 35 445 54 q 486 74 518 109 q 549 144 570 191 q 592 238 602 294 q 616 370 607 434 q 598 498 571 544 q 544 590 502 616 q 460 641 407 641 z"},"(":{"x_min":0,"x_max":298,"ha":298,"o":"m 354 729 q 310 682 277 634 q 244 585 218 530 q 193 476 175 414 q 157 352 145 280 q 88 -52 182 -264 q 170 -274 148 -271 q 79 -152 56 -14 q 32 123 57 260 q 69 327 88 387 q 108 447 140 504 q 171 562 214 620 q 258 678 318 741 q 342 744 354 729 z"},"C":{"x_min":0,"x_max":615,"ha":615,"o":"m 444 685 q 507 685 556 670 q 606 656 656 626 q 643 592 636 555 q 628 518 623 475 q 598 465 569 473 q 576 526 570 560 q 565 593 549 612 q 533 630 508 637 q 483 644 451 644 q 387 644 336 620 q 284 595 247 553 q 210 511 187 454 q 164 397 157 333 q 151 277 160 226 q 168 175 192 136 q 217 98 258 75 q 299 52 358 52 q 413 52 463 68 q 513 83 558 110 q 572 96 574 72 q 515 30 455 10 q 395 -9 331 -9 q 254 -9 197 17 q 140 43 104 89 q 69 135 56 196 q 42 257 51 328 q 63 422 102 490 q 141 557 196 600 q 250 644 315 664 q 380 685 444 685 z"},"W":{"x_min":0,"x_max":963,"ha":963,"o":"m 938 676 q 963 676 988 676 q 1013 677 1033 679 q 1033 657 1024 636 q 1012 631 1002 622 q 991 614 980 598 q 969 581 956 554 q 943 528 925 486 q 872 364 816 243 q 761 122 698 0 q 689 -5 678 -6 q 667 -7 657 -5 q 648 56 636 124 q 625 192 612 261 q 598 330 582 398 q 567 466 551 528 q 490 394 423 261 q 356 128 287 0 q 279 -5 267 -6 q 255 -8 244 -6 q 221 151 199 284 q 177 418 157 529 q 151 563 146 583 q 142 603 136 614 q 131 624 124 628 q 117 633 106 637 q 100 656 103 679 q 142 677 167 676 q 192 676 214 676 q 239 676 270 676 q 302 677 329 679 q 329 668 328 657 q 327 646 322 635 q 294 630 278 624 q 262 618 256 606 q 249 594 250 575 q 250 556 255 525 q 262 484 270 437 q 278 390 286 342 q 293 293 300 244 q 308 194 315 148 q 382 278 446 410 q 509 542 572 678 q 589 686 615 683 q 631 623 646 558 q 662 492 676 424 q 690 357 702 290 q 715 222 725 158 q 769 244 808 328 q 846 413 881 499 q 897 538 904 562 q 910 586 906 600 q 903 615 889 622 q 875 630 849 636 q 845 656 848 679 q 868 677 890 676 q 912 676 938 676 z"},"A":{"x_min":0,"x_max":687,"ha":687,"o":"m 132 143 q 115 114 108 96 q 100 77 102 66 q 105 54 116 48 q 127 43 147 40 q 151 19 150 -3 q 126 -1 104 0 q 81 0 58 0 q 32 0 14 0 q -5 -1 -27 -3 q -27 8 -26 19 q -24 30 -19 40 q -5 44 6 51 q 17 58 28 70 q 39 83 52 102 q 65 122 82 151 q 159 282 233 412 q 307 543 381 676 q 390 680 401 681 q 412 682 420 682 q 459 545 495 408 q 531 271 564 132 q 571 104 577 88 q 583 71 590 62 q 596 52 604 48 q 612 43 623 40 q 626 29 626 18 q 627 8 626 -3 q 601 -1 570 0 q 538 0 515 0 q 489 0 460 0 q 431 -1 401 -3 q 401 8 402 19 q 404 30 409 40 q 431 43 444 48 q 458 52 464 61 q 470 70 470 84 q 470 99 464 122 l 441 219 q 378 219 306 218 q 234 217 174 215 z m 429 265 q 418 311 406 356 q 394 402 381 447 q 373 476 368 498 q 362 521 357 552 q 342 521 329 496 q 316 472 299 440 q 276 396 252 352 q 228 309 203 265 z"},"f":{"x_min":0,"x_max":292,"ha":292,"o":"m 124 454 q 135 521 158 570 q 182 619 213 651 q 244 683 282 698 q 319 714 359 714 q 397 714 424 706 q 450 699 463 689 q 452 666 446 638 q 439 610 437 582 q 420 572 395 574 q 393 625 376 646 q 360 668 329 668 q 311 668 297 659 q 283 650 271 626 q 259 601 247 558 q 235 515 222 448 l 321 448 q 321 437 320 427 q 318 417 314 409 q 286 409 260 406 q 233 404 213 401 q 196 304 184 231 q 173 158 166 118 q 152 38 132 -30 q 111 -97 83 -146 q 55 -194 20 -221 q -14 -248 -55 -248 q -102 -248 -144 -212 q -146 -196 -144 -181 q -142 -166 -137 -152 q -114 -160 -86 -164 q -58 -168 -26 -168 q -9 -168 4 -162 q 16 -157 26 -134 q 36 -112 46 -66 q 56 -21 68 59 q 79 133 89 216 q 99 299 116 403 q 99 405 80 407 q 62 409 45 409 q 45 432 56 448 l 123 448 z"},"Q":{"x_min":0,"x_max":720,"ha":720,"o":"m 721 -120 q 731 -124 738 -133 q 746 -142 749 -153 q 743 -163 732 -174 q 721 -186 706 -196 q 691 -206 672 -212 q 654 -219 633 -219 q 592 -219 560 -202 q 529 -184 498 -134 q 468 -85 432 -51 q 397 -17 337 -9 q 262 -9 203 19 q 144 47 106 98 q 69 148 56 218 q 42 289 59 375 q 71 440 104 496 q 138 553 186 595 q 235 637 296 661 q 357 685 426 685 q 498 685 558 660 q 617 634 656 585 q 694 536 708 463 q 722 390 704 296 q 695 246 672 200 q 650 155 617 118 q 584 80 542 52 q 499 23 449 8 q 492 -6 532 -33 q 573 -60 610 -93 q 642 -122 658 -130 q 674 -138 691 -136 q 700 -135 708 -130 q 716 -126 721 -120 z m 163 382 q 149 311 156 248 q 162 185 186 138 q 211 90 254 62 q 296 35 355 35 q 404 35 445 54 q 486 74 518 109 q 549 144 570 191 q 592 238 602 294 q 616 370 607 434 q 598 498 571 544 q 544 590 502 616 q 460 641 407 641 q 362 641 322 620 q 282 600 250 564 q 218 529 196 482 q 173 435 163 382 z"},"w":{"x_min":0,"x_max":704,"ha":704,"o":"m 616 467 q 644 456 660 432 q 676 408 676 363 q 676 334 666 300 q 657 266 632 222 q 606 177 561 120 q 516 64 445 -9 q 417 -11 397 0 q 392 65 384 122 q 377 178 369 224 q 358 194 344 168 q 331 141 312 114 q 292 87 265 57 q 238 27 202 -9 q 174 -11 154 0 q 148 94 134 179 q 121 264 106 326 q 101 344 96 356 q 92 369 84 376 q 77 384 65 386 q 53 389 34 388 q 34 392 35 405 q 36 418 39 426 q 64 429 94 442 q 123 455 139 467 q 153 462 162 456 q 170 449 176 436 q 181 424 185 405 q 189 386 195 356 q 202 321 208 284 q 214 246 219 210 q 224 173 228 140 q 231 106 233 79 q 270 122 294 162 q 318 201 328 243 q 339 285 336 332 q 334 378 319 435 q 336 440 351 448 q 366 457 374 467 q 386 464 393 459 q 400 454 406 442 q 412 431 417 411 q 422 391 429 357 q 436 322 444 284 q 451 247 457 210 q 463 174 468 140 q 472 107 475 80 q 535 155 561 212 q 587 270 587 307 q 587 346 572 364 q 556 383 523 387 q 515 404 517 424 q 530 428 545 433 q 560 438 574 444 q 587 450 598 456 q 610 462 616 467 z"},"-":{"x_min":0,"x_max":343,"ha":343,"o":"m 323 299 q 322 277 319 262 q 316 248 310 234 q 260 234 190 234 q 120 233 33 231 q 35 254 38 270 q 42 285 50 299 z"},"E":{"x_min":0,"x_max":549,"ha":549,"o":"m 242 364 l 283 364 q 314 364 336 368 q 358 371 373 380 q 388 389 396 405 q 405 421 409 446 q 422 448 432 448 q 443 449 457 447 q 451 422 446 398 q 441 375 436 336 q 431 300 428 273 q 426 246 424 221 q 410 223 398 226 q 387 228 378 234 q 382 284 361 302 q 340 319 279 319 l 234 319 l 204 143 q 199 111 199 92 q 199 73 207 62 q 215 52 232 48 q 249 45 277 45 l 281 45 q 327 45 357 54 q 387 62 408 78 q 428 94 443 118 q 458 142 473 172 q 487 170 498 165 q 509 160 518 150 q 501 118 487 80 q 473 41 464 -3 q 419 -1 373 0 q 327 0 271 0 q 198 0 138 0 q 79 -1 19 -3 q 19 20 26 40 q 49 43 63 48 q 77 54 86 65 q 95 76 100 95 q 105 114 110 143 l 182 554 q 186 579 186 594 q 185 609 179 618 q 173 626 160 630 q 148 633 129 636 q 127 646 126 656 q 126 667 128 679 q 180 677 224 676 q 268 676 295 676 q 353 676 416 676 q 480 677 558 679 q 553 641 551 596 q 549 551 551 516 q 532 508 501 509 q 500 541 496 564 q 491 587 477 602 q 463 617 435 624 q 407 631 359 631 l 287 631 z"},"s":{"x_min":0,"x_max":362,"ha":362,"o":"m 162 34 q 183 34 200 44 q 218 55 222 76 q 226 98 215 118 q 204 137 185 156 q 166 175 144 196 q 121 216 103 240 q 85 265 75 294 q 65 324 72 362 q 81 413 119 440 q 157 467 220 467 q 252 467 288 456 q 323 446 345 425 q 334 402 330 378 q 325 355 323 327 q 306 317 281 319 q 279 367 257 395 q 235 423 195 423 q 171 423 157 412 q 143 400 140 383 q 135 360 147 340 q 159 321 179 302 q 199 284 222 264 q 246 244 264 220 q 283 196 293 166 q 303 137 296 99 q 286 47 247 19 q 208 -9 142 -9 q 100 -9 64 6 q 27 22 5 48 q 16 71 20 96 q 25 122 27 150 q 44 160 69 158 q 68 133 75 110 q 82 88 94 71 q 107 54 124 44 q 141 34 162 34 z"},">":{"x_min":0,"x_max":450,"ha":450,"o":"m 416 283 q 422 270 422 254 q 423 238 418 224 q 358 189 308 159 q 257 129 209 100 q 161 70 112 38 q 62 6 5 -31 q -12 -11 -5 20 l 377 256 l 71 541 q 79 551 92 557 q 105 563 118 565 z"},"l":{"x_min":0,"x_max":254,"ha":254,"o":"m 148 224 q 137 171 133 138 q 129 106 130 89 q 130 72 135 66 q 140 61 148 61 q 158 61 170 68 q 182 74 199 90 q 212 78 217 60 q 193 31 162 11 q 132 -9 104 -9 q 33 -9 36 72 q 36 84 37 97 q 38 110 41 130 q 44 151 50 182 q 55 212 64 260 q 73 307 86 374 q 99 441 118 534 q 125 568 126 588 q 128 607 123 617 q 118 627 104 629 q 91 631 67 631 q 67 642 68 652 q 68 661 73 669 q 85 670 104 674 q 122 679 142 685 q 161 691 179 698 q 197 704 208 710 q 238 700 229 646 q 209 532 188 427 q 168 322 148 224 z"},"8":{"x_min":0,"x_max":451,"ha":451,"o":"m 447 490 q 442 465 429 444 q 416 424 398 407 q 380 390 358 376 q 336 363 313 351 q 380 295 400 242 q 419 190 406 127 q 400 96 382 71 q 364 46 336 28 q 309 10 274 0 q 238 -9 197 -9 q 94 -9 46 36 q -3 82 14 169 q 25 224 66 264 q 106 303 179 339 q 126 381 109 422 q 92 463 103 514 q 108 538 124 560 q 139 583 164 600 q 189 617 222 627 q 256 637 298 637 q 385 637 422 596 q 460 556 447 490 z m 277 378 q 312 398 332 422 q 352 446 360 482 q 366 510 362 532 q 358 553 348 567 q 337 581 320 588 q 304 595 285 595 q 256 595 230 576 q 205 558 197 523 q 194 505 194 488 q 194 472 202 455 q 211 438 228 419 q 246 400 277 378 z m 314 121 q 319 147 318 170 q 316 192 305 214 q 294 237 272 260 q 250 284 215 312 q 161 284 135 251 q 109 218 101 172 q 94 135 98 109 q 103 83 117 66 q 131 49 153 41 q 175 33 204 33 q 246 33 276 53 q 306 73 314 121 z"},"\\":{"x_min":0,"x_max":292,"ha":292,"o":"m 247 0 q 237 -5 224 -7 q 211 -9 198 -8 q 175 173 149 351 q 123 529 94 709 q 119 720 144 715 z"},"e":{"x_min":0,"x_max":360,"ha":360,"o":"m 257 467 q 287 467 307 458 q 327 448 338 432 q 348 417 350 397 q 353 377 349 356 q 343 325 318 299 q 293 273 260 254 q 227 235 190 224 q 153 213 122 212 q 119 186 120 160 q 120 134 126 113 q 132 92 145 79 q 158 66 181 66 q 203 66 231 80 q 259 93 281 119 q 296 108 302 90 q 288 72 268 54 q 249 36 226 22 q 204 8 180 0 q 156 -9 132 -9 q 90 -9 66 12 q 43 32 33 65 q 23 98 24 139 q 26 180 34 221 q 45 279 69 325 q 93 371 124 402 q 154 434 189 450 q 224 467 257 467 z m 126 249 q 151 250 175 256 q 199 263 218 275 q 238 287 251 304 q 264 321 268 343 q 270 355 269 367 q 268 379 262 390 q 257 400 248 406 q 238 413 224 413 q 195 413 168 375 q 142 337 130 271 z"},"b":{"x_min":0,"x_max":448,"ha":448,"o":"m 118 534 q 124 569 126 588 q 128 608 122 618 q 117 627 104 629 q 91 631 67 631 q 65 654 73 669 q 108 674 144 685 q 179 696 208 710 q 239 700 229 646 l 190 427 q 183 389 174 356 q 164 322 149 280 l 151 280 q 163 310 184 342 q 204 375 230 403 q 256 431 286 449 q 315 467 347 467 q 397 467 418 417 q 439 367 417 256 q 405 198 380 150 q 355 101 320 66 q 284 30 240 10 q 196 -9 147 -9 q 98 -9 66 3 q 34 15 9 41 q 16 51 23 70 q 30 88 37 112 q 44 135 50 162 q 57 189 62 217 z m 113 54 q 127 46 142 44 q 156 42 173 42 q 204 42 228 54 q 252 67 270 89 q 288 111 300 142 q 312 173 320 210 q 338 295 330 340 q 321 386 291 386 q 278 386 256 368 q 235 350 212 316 q 188 282 166 233 q 144 184 129 122 z"},"%":{"x_min":0,"x_max":685,"ha":685,"o":"m 612 685 q 641 670 646 644 q 571 553 508 475 q 444 397 383 322 q 322 246 260 166 q 197 86 124 -9 q 112 -3 104 7 q 95 17 93 30 z m 251 677 q 320 677 353 628 q 386 578 370 496 q 357 434 316 396 q 276 359 222 359 q 186 359 159 372 q 132 385 116 409 q 99 433 94 467 q 88 501 96 542 q 108 603 150 640 q 193 677 251 677 z m 241 635 q 215 635 194 610 q 174 586 166 545 q 154 480 170 440 q 187 401 227 401 q 252 401 272 426 q 292 450 300 492 q 313 557 296 596 q 280 635 241 635 z m 511 309 q 580 309 613 260 q 646 210 630 128 q 617 66 576 28 q 536 -9 482 -9 q 446 -9 419 4 q 392 17 376 41 q 359 65 354 99 q 348 133 356 174 q 368 235 410 272 q 453 309 511 309 z m 501 267 q 475 267 454 242 q 434 218 426 177 q 414 112 430 72 q 447 33 487 33 q 512 33 532 58 q 552 82 560 124 q 573 189 556 228 q 540 267 501 267 z"},"m":{"x_min":0,"x_max":778,"ha":778,"o":"m 92 291 q 98 326 100 346 q 102 365 96 374 q 91 384 78 386 q 64 388 40 388 q 40 392 40 405 q 41 418 46 426 q 58 427 76 432 q 95 436 114 442 q 134 448 152 454 q 169 461 180 467 q 210 457 201 402 q 193 359 184 331 q 176 303 165 278 l 166 278 l 181 311 q 192 336 214 364 q 237 391 264 414 q 292 437 322 452 q 353 467 380 467 q 393 467 407 462 q 421 456 432 442 q 443 429 448 407 q 453 385 447 352 q 443 332 438 314 q 433 297 425 278 l 426 278 l 441 311 q 452 335 474 362 q 497 388 525 410 q 553 433 584 448 q 614 462 640 462 q 667 462 683 448 q 699 434 706 409 q 712 384 710 348 q 707 313 696 270 l 666 153 q 658 122 654 104 q 650 85 650 76 q 650 66 654 63 q 659 60 667 60 q 678 60 691 66 q 704 73 722 90 q 736 77 739 58 q 716 31 686 11 q 655 -9 626 -9 q 598 -9 583 -1 q 568 7 564 26 q 559 44 562 75 q 566 106 576 152 l 602 266 q 611 304 613 328 q 615 353 612 367 q 609 381 602 386 q 594 392 583 392 q 568 392 544 376 q 520 359 494 326 q 469 293 446 244 q 424 195 411 130 l 386 0 l 296 0 l 342 225 q 354 281 356 315 q 359 349 356 367 q 352 385 343 391 q 334 397 323 397 q 308 397 284 379 q 260 361 235 326 q 210 292 188 242 q 165 193 153 130 l 128 0 l 37 0 z"},"#":{"x_min":0,"x_max":566,"ha":566,"o":"m 420 263 l 529 263 q 529 235 517 214 l 410 214 l 363 -8 q 337 -4 319 14 l 362 214 l 202 214 l 155 -8 q 123 -3 112 18 l 153 213 q 121 212 93 212 q 65 212 39 211 q 39 237 51 263 l 164 263 l 202 442 q 170 442 142 442 q 115 441 92 440 q 92 451 94 465 q 97 479 104 492 l 213 492 l 260 714 q 290 710 303 692 l 261 492 l 421 492 l 468 714 q 497 708 511 694 l 468 492 l 571 492 q 571 462 559 443 l 458 443 z m 250 443 l 212 263 l 372 263 l 410 443 z"},",":{"x_min":0,"x_max":211,"ha":211,"o":"m 108 103 q 125 93 130 70 q 136 47 128 8 q 119 -40 84 -90 q 49 -141 -1 -181 q -13 -181 -22 -175 q -30 -169 -35 -160 q -8 -135 14 -108 q 35 -80 44 -56 q 52 -32 44 -14 q 37 4 6 12 q 6 27 10 46 q 14 64 21 75 q 42 77 68 85 q 93 93 108 103 z"},"n":{"x_min":0,"x_max":518,"ha":518,"o":"m 409 153 q 401 119 397 100 q 393 81 392 72 q 392 63 396 61 q 399 59 405 59 q 416 59 432 68 q 449 78 461 90 q 475 76 479 58 q 446 24 418 8 q 391 -9 364 -9 q 334 -9 320 2 q 306 13 302 34 q 299 55 304 85 q 309 115 317 152 l 344 271 q 353 309 354 334 q 356 358 352 372 q 349 386 340 392 q 332 397 321 397 q 306 397 282 378 q 257 358 232 322 q 207 287 185 238 q 163 189 152 130 l 127 0 l 36 0 l 91 291 q 97 326 99 346 q 101 365 96 374 q 91 384 78 386 q 64 388 40 388 q 40 399 40 408 q 41 418 46 426 q 58 427 76 432 q 95 436 115 442 q 135 448 153 454 q 171 461 182 467 q 212 457 203 402 q 195 359 186 330 q 176 302 165 277 l 166 277 l 182 311 q 194 335 216 362 q 238 390 266 414 q 293 437 322 452 q 352 467 378 467 q 394 467 410 459 q 427 451 438 430 q 449 409 450 372 q 452 334 438 275 z"},"h":{"x_min":0,"x_max":504,"ha":504,"o":"m 395 153 q 387 119 383 100 q 379 81 378 72 q 378 63 382 61 q 385 59 391 59 q 402 59 418 68 q 435 78 447 90 q 461 76 465 58 q 432 24 404 8 q 377 -9 350 -9 q 320 -9 306 2 q 292 13 288 34 q 285 55 290 85 q 295 115 303 152 l 330 271 q 339 309 340 334 q 342 358 338 372 q 335 386 326 392 q 318 397 307 397 q 292 397 268 378 q 243 358 218 322 q 192 287 170 238 q 148 189 138 130 l 115 0 l 24 0 l 118 534 q 124 569 126 588 q 128 608 123 618 q 118 627 104 629 q 91 631 67 631 q 67 642 68 652 q 68 661 73 669 q 85 670 104 674 q 122 679 142 685 q 161 691 179 698 q 197 704 208 710 q 238 700 229 646 q 214 563 204 508 q 194 454 185 414 q 176 373 166 338 q 156 303 142 258 l 143 258 l 168 311 q 180 335 202 362 q 224 390 252 414 q 279 437 308 452 q 338 467 364 467 q 380 467 396 459 q 413 451 424 430 q 435 409 436 372 q 438 334 424 275 z"},"z":{"x_min":0,"x_max":398,"ha":398,"o":"m 309 135 q 320 136 332 133 q 344 130 352 123 q 341 98 334 68 q 326 38 323 10 q 314 -5 293 -5 q 279 -5 265 -4 q 251 -3 234 -2 q 217 -2 194 -1 q 172 0 141 0 q 87 0 50 -1 q 12 -2 -3 -4 q -8 5 -10 15 q -13 25 -12 38 q 92 129 170 214 q 248 300 290 370 q 276 374 259 376 q 242 378 216 378 q 190 378 172 375 q 154 372 140 366 q 127 359 117 348 q 107 338 96 322 q 83 323 75 327 q 67 331 59 339 q 74 366 85 396 q 96 427 101 454 q 127 461 156 464 q 185 467 229 467 q 278 467 307 464 q 336 461 359 457 q 372 444 375 422 q 352 381 322 338 q 292 294 257 250 q 222 206 183 164 q 144 121 103 82 q 117 84 134 85 q 150 86 175 86 q 203 86 222 84 q 241 81 252 81 q 267 81 280 90 q 292 99 309 135 z"},"B":{"x_min":0,"x_max":591,"ha":591,"o":"m 189 554 q 193 579 192 594 q 191 610 184 618 q 176 627 162 630 q 149 634 130 636 q 128 647 127 657 q 126 667 128 679 q 163 677 187 676 q 211 676 238 676 q 274 676 310 678 q 346 679 380 679 q 485 679 534 640 q 584 602 568 512 q 557 456 510 416 q 464 375 397 366 q 493 361 536 313 q 578 265 559 170 q 543 93 474 46 q 405 0 293 0 q 264 0 230 0 q 196 0 160 0 q 124 -1 90 -2 q 55 -2 25 -3 q 26 22 33 40 q 56 43 70 48 q 84 54 93 66 q 102 77 107 96 q 112 114 117 143 z m 281 376 q 362 376 408 410 q 453 445 464 502 q 477 570 443 603 q 409 636 342 636 q 332 636 321 635 q 310 634 296 630 l 252 376 z m 210 133 q 204 102 204 84 q 205 66 214 56 q 222 47 239 44 q 256 42 283 42 q 348 42 394 76 q 439 110 450 165 q 468 255 426 293 q 384 331 269 331 l 244 331 z"},"K":{"x_min":0,"x_max":640,"ha":640,"o":"m 449 546 q 475 571 488 587 q 500 603 502 614 q 505 624 498 629 q 491 634 477 636 q 475 647 473 658 q 471 668 473 679 q 503 677 526 676 q 550 676 582 676 q 610 676 630 676 q 650 677 680 679 q 680 670 680 658 q 679 645 675 636 q 654 633 637 628 q 620 624 602 614 q 585 604 564 588 q 544 572 517 547 l 330 371 q 372 326 408 270 q 443 214 480 133 q 496 98 509 86 q 522 74 537 74 q 547 74 554 77 q 560 80 571 90 q 590 80 601 58 q 575 26 548 8 q 522 -9 485 -9 q 454 -7 434 12 q 413 32 396 77 q 361 167 326 229 q 290 291 247 339 l 210 127 q 205 102 205 86 q 205 70 210 60 q 216 51 228 46 q 240 42 259 40 q 264 20 261 -3 q 231 -1 205 0 q 179 0 150 0 q 121 0 88 0 q 55 -1 29 -3 q 29 22 37 40 q 57 42 70 46 q 84 51 92 60 q 101 70 106 86 q 111 102 116 127 l 189 549 q 193 574 192 590 q 191 606 184 615 q 177 624 164 628 q 150 633 129 636 q 127 646 126 656 q 126 667 128 679 q 183 676 248 676 q 310 676 370 679 q 369 667 368 656 q 366 646 361 636 q 342 633 329 628 q 316 623 308 614 q 299 604 293 588 q 287 573 283 549 l 250 357 z"},"R":{"x_min":0,"x_max":650,"ha":650,"o":"m 190 554 q 197 597 184 614 q 170 631 129 636 q 125 655 128 679 q 165 677 193 676 q 221 676 256 676 q 298 676 339 678 q 380 679 421 679 q 529 679 578 631 q 628 583 611 495 q 598 428 539 384 q 480 339 386 322 q 398 306 408 290 q 419 274 430 254 q 440 235 451 210 q 462 185 475 152 q 492 110 508 92 q 523 74 537 74 q 547 74 554 77 q 560 80 571 90 q 590 80 601 58 q 575 26 548 8 q 522 -9 485 -9 q 443 -9 422 24 q 402 56 385 116 q 366 178 346 222 q 325 266 299 306 q 283 304 268 304 q 253 305 241 306 l 209 122 q 204 97 204 82 q 205 67 210 58 q 216 50 228 46 q 240 43 258 40 q 260 29 260 18 q 261 8 260 -3 q 241 -2 226 -2 q 212 -1 199 0 q 186 0 173 0 q 160 0 144 0 q 109 0 84 0 q 58 -1 29 -3 q 29 8 30 19 q 32 30 37 40 q 59 42 72 48 q 86 53 94 64 q 103 74 108 90 q 112 107 117 132 z m 249 353 q 260 351 270 351 q 279 351 289 351 q 331 351 368 360 q 406 370 436 388 q 466 406 486 434 q 506 461 513 497 q 526 566 491 601 q 456 636 378 636 q 330 636 296 627 z"},"T":{"x_min":0,"x_max":545,"ha":545,"o":"m 242 637 q 215 637 195 630 q 175 623 160 608 q 144 592 132 568 q 121 544 110 510 q 95 510 83 512 q 71 515 63 524 q 68 540 74 560 q 79 579 84 600 q 88 620 92 640 q 96 661 99 679 q 141 677 208 676 q 275 676 350 676 q 428 676 498 676 q 567 677 609 679 q 603 644 600 604 q 596 563 596 521 q 585 515 574 514 q 562 512 548 513 q 548 547 544 571 q 539 595 528 610 q 516 624 496 630 q 476 637 445 637 l 395 637 l 305 122 q 301 101 301 86 q 301 72 308 63 q 315 54 330 48 q 345 43 372 40 q 377 19 374 -3 q 342 -1 309 0 q 276 0 246 0 q 213 0 178 0 q 142 -1 115 -3 q 115 22 122 41 q 146 44 162 49 q 178 54 188 64 q 197 74 202 90 q 208 107 213 132 l 301 637 z"},"P":{"x_min":0,"x_max":563,"ha":563,"o":"m 187 554 q 191 577 191 592 q 191 606 185 615 q 179 624 166 628 q 152 633 130 636 q 125 657 128 679 q 142 678 160 678 q 179 677 198 676 q 217 676 235 676 q 253 676 266 676 q 276 676 292 676 q 308 677 326 678 q 345 678 365 678 q 385 679 403 679 q 512 679 559 620 q 606 561 586 455 q 577 408 554 370 q 531 333 497 306 q 463 280 419 266 q 375 251 325 251 q 282 251 260 263 q 259 271 262 284 q 265 297 269 303 q 279 300 292 298 q 305 296 320 296 q 388 296 432 335 q 475 374 490 452 q 507 540 476 588 q 444 635 356 635 q 340 635 325 634 q 310 633 292 628 l 209 142 q 204 113 203 95 q 202 77 209 66 q 216 56 233 50 q 250 44 280 40 q 283 30 284 20 q 284 11 283 -3 q 245 -1 218 0 q 190 0 156 0 q 119 0 89 0 q 59 -1 25 -3 q 26 22 33 40 q 55 44 69 50 q 83 55 92 65 q 100 75 104 91 q 109 107 114 132 z"},"|":{"x_min":0,"x_max":183,"ha":183,"o":"m 159 712 q 174 712 186 708 q 198 704 207 693 q 157 459 112 226 q 67 -8 25 -246 q 11 -245 -2 -241 q -14 -237 -22 -227 z"},"t":{"x_min":0,"x_max":316,"ha":316,"o":"m 161 203 q 152 162 150 134 q 147 105 150 87 q 154 69 163 61 q 172 53 184 53 q 201 53 222 66 q 242 78 258 98 q 266 93 272 84 q 277 75 279 66 q 269 53 254 40 q 240 26 222 16 q 205 5 186 -2 q 166 -9 146 -9 q 83 -9 64 40 q 44 88 69 196 l 116 403 q 99 405 80 407 q 60 409 42 409 q 42 432 53 448 l 127 448 l 129 458 q 140 504 146 540 q 153 575 155 596 q 175 599 198 606 q 220 612 234 620 q 240 617 244 611 q 247 605 247 592 q 247 580 243 557 q 239 534 230 497 l 219 448 l 312 448 q 312 437 310 427 q 309 417 305 409 q 278 409 253 407 q 228 405 208 402 z"},"M":{"x_min":0,"x_max":883,"ha":883,"o":"m 797 530 q 785 315 770 163 q 766 126 767 104 q 768 81 774 68 q 780 56 792 50 q 803 44 820 40 q 822 30 822 19 q 823 8 822 -3 q 799 -1 766 0 q 733 0 700 0 q 664 0 634 0 q 605 -1 580 -3 q 580 19 588 40 q 612 44 628 50 q 643 57 652 70 q 662 84 666 106 q 671 127 674 160 q 682 241 688 328 q 695 415 700 509 q 630 378 556 250 q 482 121 405 -4 q 395 -8 385 -8 q 375 -9 364 -9 q 332 123 296 254 q 260 385 218 519 q 197 430 175 347 q 153 264 135 198 q 122 151 118 122 q 114 94 118 78 q 123 61 138 53 q 152 45 177 40 q 179 29 180 18 q 180 8 179 -3 q 148 -1 122 0 q 96 0 76 0 q 53 0 30 0 q 8 -1 -27 -3 q -27 7 -26 18 q -24 29 -19 40 q 1 45 15 54 q 29 62 40 78 q 50 95 60 122 q 70 148 82 190 q 108 278 132 366 q 155 455 176 546 q 182 573 182 590 q 183 606 177 616 q 171 625 158 630 q 146 634 126 636 q 124 648 124 658 q 123 668 125 679 q 148 677 166 676 q 185 676 202 676 q 222 676 238 676 q 255 677 274 679 q 318 538 356 399 q 394 260 428 120 q 509 257 586 396 q 664 535 739 679 q 761 677 775 676 q 789 676 804 676 q 819 676 838 676 q 858 677 877 679 q 877 656 870 636 q 850 634 837 628 q 824 623 816 611 q 808 599 804 580 q 799 560 797 530 z"},"g":{"x_min":0,"x_max":448,"ha":448,"o":"m 297 178 q 284 147 264 114 q 243 81 217 54 q 191 26 161 8 q 131 -9 100 -9 q 50 -9 29 41 q 8 91 30 202 q 42 260 67 308 q 92 357 128 392 q 163 427 206 447 q 250 467 299 467 q 313 467 329 464 q 345 462 356 458 q 370 459 384 461 q 398 463 406 467 q 415 463 418 452 q 421 441 416 411 l 341 -12 q 318 -140 257 -195 q 196 -250 101 -250 q 60 -250 24 -242 q -11 -233 -29 -219 q -18 -196 -12 -164 q -6 -133 -4 -105 q 14 -95 40 -97 q 42 -155 58 -180 q 73 -205 117 -205 q 164 -205 197 -164 q 230 -122 247 -29 l 261 53 q 265 76 275 110 q 285 145 298 178 z m 335 406 q 309 416 274 416 q 243 416 219 404 q 195 391 177 369 q 159 347 146 316 q 134 285 127 248 q 109 163 118 118 q 126 72 156 72 q 169 72 190 90 q 212 108 236 142 q 259 176 282 225 q 304 274 318 336 z"},"j":{"x_min":0,"x_max":233,"ha":233,"o":"m 204 697 q 229 697 241 680 q 253 664 247 636 q 242 610 224 594 q 206 577 181 577 q 157 577 146 594 q 134 610 139 636 q 145 664 163 680 q 181 697 204 697 z m 97 314 q 101 337 102 352 q 102 366 96 374 q 91 382 78 385 q 65 388 42 388 q 41 398 42 408 q 43 417 48 426 q 60 427 76 432 q 93 436 110 442 q 128 448 143 454 q 158 461 167 467 q 180 461 188 454 q 196 446 199 430 q 202 415 200 388 q 197 362 189 319 l 143 74 q 131 12 112 -37 q 92 -86 62 -125 q 32 -164 -9 -194 q -50 -225 -104 -249 q -118 -237 -119 -216 q -47 -165 -8 -100 q 32 -34 48 51 z"},"i":{"x_min":0,"x_max":247,"ha":247,"o":"m 209 697 q 234 697 246 680 q 258 664 252 636 q 247 610 229 594 q 211 577 186 577 q 162 577 150 594 q 139 610 144 636 q 150 664 168 680 q 186 697 209 697 z m 80 279 q 91 317 96 338 q 100 360 96 371 q 92 382 78 385 q 65 388 40 388 q 39 410 46 426 q 58 427 74 432 q 90 436 106 442 q 123 448 138 454 q 152 461 161 467 q 192 454 198 424 q 205 393 188 331 l 133 138 q 126 114 123 98 q 120 83 121 75 q 122 67 126 64 q 131 61 138 61 q 148 61 162 68 q 175 75 190 90 q 205 80 208 58 q 179 26 150 8 q 122 -9 94 -9 q 44 -9 32 30 q 21 70 39 135 z"},"y":{"x_min":0,"x_max":447,"ha":447,"o":"m 118 467 q 130 463 138 458 q 146 452 152 442 q 157 432 162 416 q 166 399 171 372 q 188 284 198 208 q 207 132 210 50 q 276 150 304 220 q 333 291 333 333 q 333 354 322 368 q 310 382 277 387 q 269 404 271 424 q 284 428 299 434 q 314 439 328 445 q 341 451 352 457 q 364 463 370 468 q 398 457 411 436 q 424 415 424 389 q 424 326 378 237 q 331 148 240 17 q 180 -70 139 -122 q 98 -175 68 -202 q 38 -230 14 -239 q -9 -248 -35 -248 q -82 -248 -124 -212 q -126 -196 -124 -181 q -122 -166 -117 -152 q -94 -160 -67 -164 q -40 -168 -16 -168 q -1 -168 14 -164 q 30 -159 48 -147 q 65 -135 86 -112 q 107 -90 135 -54 q 129 63 116 163 q 102 263 85 326 q 80 344 76 356 q 71 369 64 376 q 56 384 44 386 q 32 389 13 388 q 11 411 18 426 q 43 429 72 442 q 102 455 118 467 z"},"@":{"x_min":0,"x_max":808,"ha":808,"o":"m 473 147 q 459 119 439 92 q 419 64 396 42 q 372 19 346 5 q 319 -9 291 -9 q 241 -9 220 41 q 199 91 221 202 q 233 260 258 308 q 283 357 318 392 q 354 427 398 447 q 441 467 490 467 q 504 467 520 464 q 535 462 546 458 q 561 458 577 460 q 593 462 603 467 q 607 465 610 461 q 614 457 615 447 q 616 437 614 419 q 612 401 605 371 l 555 147 q 549 118 548 102 q 546 85 548 76 q 550 68 556 66 q 561 64 569 64 q 599 64 626 80 q 653 96 676 125 q 698 154 714 196 q 731 237 739 287 q 753 365 740 426 q 727 488 691 531 q 655 574 598 596 q 541 619 467 619 q 398 619 338 594 q 277 569 229 524 q 181 478 148 414 q 114 349 101 271 q 84 175 97 96 q 110 17 149 -40 q 188 -96 252 -126 q 315 -157 399 -157 q 484 -157 555 -128 q 626 -100 684 -53 q 706 -57 710 -78 q 653 -134 573 -168 q 493 -202 384 -202 q 288 -202 214 -169 q 141 -136 96 -75 q 50 -14 34 71 q 19 156 37 260 q 52 350 92 424 q 132 497 190 550 q 248 602 322 631 q 396 660 480 660 q 565 660 630 634 q 694 609 735 562 q 776 514 790 446 q 805 377 790 291 q 779 227 754 172 q 729 118 694 78 q 658 37 615 14 q 572 -9 524 -9 q 490 -9 474 8 q 459 24 456 48 q 453 72 459 99 q 465 126 474 147 z m 526 406 q 500 416 465 416 q 434 416 410 404 q 386 391 368 369 q 350 347 338 316 q 325 285 318 248 q 300 163 308 118 q 317 72 347 72 q 360 72 382 90 q 403 108 426 142 q 449 176 472 225 q 494 274 509 336 z"},".":{"x_min":0,"x_max":187,"ha":187,"o":"m 110 41 q 105 18 92 5 q 78 -8 56 -8 q 29 -8 15 10 q 1 27 7 56 q 11 76 26 90 q 42 103 63 103 q 86 103 100 86 q 115 68 110 41 z"},"p":{"x_min":0,"x_max":466,"ha":466,"o":"m 172 286 q 184 316 204 348 q 224 380 250 406 q 275 433 304 450 q 334 468 366 468 q 416 468 437 418 q 458 368 436 257 q 424 199 399 150 q 374 102 338 66 q 303 31 260 12 q 216 -8 167 -8 q 156 -8 144 -6 q 132 -4 121 -2 q 123 -22 120 -47 q 118 -72 111 -114 l 88 -245 l -3 -245 l 91 289 q 97 324 99 344 q 101 363 96 372 q 91 382 78 384 q 64 386 40 386 q 40 397 40 406 q 41 416 46 424 q 58 425 76 430 q 95 434 114 440 q 134 446 152 452 q 170 459 181 465 q 211 455 202 401 q 197 371 190 343 q 182 315 170 286 z m 131 53 q 157 43 192 43 q 223 43 247 56 q 271 68 289 90 q 307 112 319 143 q 331 174 339 211 q 357 296 348 342 q 340 387 310 387 q 297 387 276 369 q 254 351 230 317 q 207 283 184 234 q 162 185 148 123 z"},"X":{"x_min":0,"x_max":617,"ha":617,"o":"m 103 679 q 143 677 168 676 q 192 676 219 676 q 249 676 277 676 q 305 677 343 679 q 343 656 334 635 q 308 631 294 624 q 280 617 276 605 q 271 593 276 574 q 282 554 296 525 q 330 454 362 384 q 388 416 414 451 q 441 486 463 518 q 485 550 494 571 q 503 592 502 605 q 501 618 491 625 q 481 632 463 636 q 459 657 462 679 q 486 677 506 676 q 526 676 547 676 q 571 676 596 676 q 621 677 647 679 q 647 670 645 658 q 643 647 638 636 q 624 634 613 629 q 602 624 589 611 q 576 598 560 576 q 544 553 519 517 q 487 471 453 426 q 419 380 383 335 q 403 289 422 243 q 442 197 462 149 q 476 114 486 94 q 497 75 508 64 q 518 53 529 48 q 540 43 555 39 q 559 22 556 -3 q 534 -2 518 -2 q 502 -1 488 0 q 475 0 463 0 q 451 0 436 0 q 404 0 371 0 q 338 -1 316 -3 q 316 18 325 41 q 349 44 362 50 q 375 55 379 67 q 383 79 378 99 q 372 119 359 152 q 346 185 332 218 q 318 251 304 283 q 276 245 250 212 q 223 179 194 143 q 156 95 160 72 q 164 49 197 40 q 199 29 199 18 q 199 8 198 -3 q 166 -1 142 0 q 119 0 93 0 q 64 0 40 0 q 17 -1 -11 -3 q -11 19 -2 40 q 11 44 24 50 q 36 56 50 67 q 65 78 83 96 q 101 114 126 142 q 167 188 206 235 q 245 282 283 332 q 261 380 238 427 q 216 474 191 524 q 173 560 162 581 q 151 602 142 613 q 134 624 126 628 q 117 633 104 637 q 100 657 103 679 z"},"*":{"x_min":0,"x_max":456,"ha":456,"o":"m 350 664 q 336 635 324 601 q 311 567 299 529 q 335 535 368 542 q 401 550 439 561 q 445 548 448 529 q 450 510 447 494 q 415 496 377 498 q 339 499 302 500 q 319 467 336 438 q 353 410 375 377 q 364 366 348 359 q 331 352 314 350 q 307 380 296 416 q 286 452 275 487 q 249 461 228 436 q 206 412 182 381 q 147 399 137 431 q 163 447 194 468 q 226 489 256 511 q 224 527 193 540 q 162 552 126 566 q 134 606 159 624 q 182 604 212 581 q 241 558 271 536 q 276 572 278 605 q 281 638 283 677 q 297 679 316 676 q 336 673 350 664 z"},"Y":{"x_min":0,"x_max":583,"ha":583,"o":"m 277 293 q 249 367 222 432 q 196 497 176 541 q 163 569 154 586 q 145 604 138 614 q 130 624 122 628 q 115 633 104 637 q 102 648 102 658 q 101 667 103 679 q 131 677 159 676 q 187 676 214 676 q 244 676 273 676 q 302 677 340 679 q 340 667 338 656 q 335 646 331 635 q 282 628 269 612 q 256 595 273 556 q 293 511 314 456 q 335 402 354 347 q 374 374 393 400 q 412 426 429 450 q 446 473 460 492 q 473 511 482 524 q 519 579 517 604 q 515 628 469 636 q 465 655 468 679 q 493 677 514 676 q 535 676 564 676 q 588 676 608 676 q 629 677 653 679 q 653 657 644 636 q 635 633 628 628 q 620 622 608 610 q 596 597 578 573 q 559 549 530 508 q 497 461 456 407 q 416 353 372 296 l 341 122 q 337 101 337 87 q 337 73 344 64 q 351 55 366 50 q 381 44 408 40 q 413 19 410 -3 q 378 -1 345 0 q 312 0 282 0 q 249 0 214 0 q 178 -1 151 -3 q 151 22 158 41 q 183 45 198 50 q 214 56 224 66 q 233 75 238 91 q 244 107 249 132 z"},"c":{"x_min":0,"x_max":374,"ha":374,"o":"m 133 -9 q 90 -9 66 12 q 43 33 34 66 q 24 100 26 142 q 28 185 36 228 q 45 274 66 317 q 86 360 116 394 q 146 427 184 447 q 223 467 269 467 q 298 467 315 462 q 332 457 348 446 q 325 393 320 335 q 312 331 300 329 q 289 327 277 327 q 277 375 264 394 q 250 414 221 414 q 206 414 192 404 q 179 393 167 374 q 155 356 146 332 q 137 307 132 280 q 124 240 121 202 q 118 163 122 133 q 126 103 140 84 q 153 66 178 66 q 207 66 234 82 q 262 97 281 118 q 294 109 302 90 q 284 67 262 49 q 241 31 218 18 q 196 5 174 -2 q 152 -9 133 -9 z"},"!":{"x_min":0,"x_max":274,"ha":274,"o":"m 276 662 q 265 623 251 571 q 237 519 222 462 q 208 404 194 343 q 179 282 167 225 q 141 222 123 231 q 132 301 138 361 q 144 421 149 475 q 154 529 157 580 q 160 630 163 681 q 186 686 216 696 q 246 705 263 714 q 277 709 280 698 q 283 686 276 662 z m 162 41 q 157 18 144 5 q 130 -8 108 -8 q 81 -8 67 10 q 53 27 59 56 q 63 76 78 90 q 94 103 115 103 q 138 103 152 86 q 167 68 162 41 z"},"/":{"x_min":0,"x_max":288,"ha":288,"o":"m 332 717 q 347 712 356 705 q 365 698 372 687 q 276 514 184 341 q 93 168 5 -9 q -10 -5 -19 2 q -28 8 -35 21 z"},"[":{"x_min":0,"x_max":300,"ha":300,"o":"m 140 742 q 157 741 182 740 q 207 740 234 740 q 261 740 287 740 q 313 741 331 742 q 341 726 336 704 q 295 701 268 696 q 242 692 226 682 q 209 673 200 656 q 192 639 187 610 l 54 -147 q 50 -171 52 -186 q 55 -201 68 -210 q 80 -219 103 -224 q 126 -228 162 -229 q 166 -237 166 -248 q 167 -258 162 -269 q 148 -268 121 -268 q 94 -267 64 -267 q 34 -267 6 -268 q -22 -268 -38 -269 z"},"6":{"x_min":0,"x_max":477,"ha":477,"o":"m 479 638 q 487 625 483 604 q 343 578 263 515 q 183 452 150 357 q 182 379 211 387 q 240 395 274 395 q 320 395 355 380 q 390 364 411 336 q 432 309 439 270 q 446 230 437 182 q 429 139 409 104 q 389 68 360 43 q 332 18 296 4 q 259 -9 218 -9 q 164 -9 125 12 q 86 32 63 70 q 40 107 34 161 q 28 215 41 283 q 56 361 96 424 q 136 488 194 534 q 253 580 326 607 q 399 634 479 638 z m 133 289 q 122 232 124 186 q 125 139 138 106 q 152 73 176 55 q 199 37 231 37 q 272 37 303 72 q 334 107 345 165 q 359 243 331 290 q 303 336 245 336 q 211 336 186 330 q 162 323 137 309 z"},"r":{"x_min":0,"x_max":366,"ha":366,"o":"m 88 291 q 95 326 97 346 q 99 365 94 374 q 89 384 76 386 q 63 388 39 388 q 39 399 40 408 q 41 418 46 426 q 58 427 76 432 q 95 436 114 442 q 134 448 152 454 q 170 461 181 467 q 211 457 201 403 q 191 350 157 271 l 159 271 l 176 308 q 191 341 210 370 q 230 398 250 420 q 271 442 292 454 q 314 467 334 467 q 353 467 366 462 q 379 458 390 449 q 379 426 372 394 q 365 361 363 333 q 346 323 321 325 q 320 347 318 360 q 316 374 313 381 q 310 388 306 390 q 302 392 296 392 q 282 392 264 371 q 245 350 224 312 q 192 254 173 203 q 154 152 141 89 l 124 0 l 32 0 z"},"2":{"x_min":0,"x_max":425,"ha":425,"o":"m 406 377 q 401 353 390 333 q 380 313 364 294 q 347 274 324 254 q 300 235 270 212 q 258 203 238 188 q 219 173 196 156 q 174 139 152 121 q 129 103 111 88 q 131 90 149 90 q 167 90 187 90 q 214 90 234 88 q 254 87 271 87 q 288 87 302 100 q 317 112 327 151 q 340 152 352 150 q 364 148 372 144 q 366 111 362 79 q 359 47 359 21 q 354 10 344 4 q 335 -3 318 -3 q 289 -3 254 -2 q 218 0 166 0 q 120 0 78 0 q 37 -1 -14 -3 q -25 15 -21 39 q 4 59 34 82 q 64 105 94 128 q 124 151 152 172 q 179 193 200 209 q 243 241 270 280 q 298 319 306 359 q 315 407 296 437 q 276 467 234 467 q 195 467 163 432 q 131 396 108 321 q 83 321 64 330 q 84 393 87 460 q 129 485 171 497 q 213 509 260 509 q 338 509 378 474 q 418 440 406 377 z"},"{":{"x_min":0,"x_max":317,"ha":317,"o":"m 364 742 q 367 735 368 726 q 368 716 366 708 q 320 700 295 679 q 270 658 258 628 q 245 599 242 564 q 239 529 238 492 q 236 456 232 420 q 227 383 213 352 q 199 321 170 296 q 141 272 91 259 q 137 245 158 220 q 179 194 184 160 q 190 127 184 88 q 177 49 168 10 q 158 -30 149 -68 q 140 -107 140 -140 q 140 -174 154 -200 q 168 -225 204 -238 q 204 -247 202 -256 q 199 -265 194 -271 q 140 -252 113 -222 q 86 -193 76 -158 q 67 -122 71 -82 q 75 -43 83 -3 q 91 37 98 76 q 106 114 104 146 q 103 179 88 204 q 73 230 35 244 q 35 264 46 276 q 88 291 110 316 q 131 341 140 372 q 150 403 152 439 q 154 475 156 512 q 159 548 167 584 q 175 619 196 650 q 218 681 258 704 q 298 728 364 742 z"},"9":{"x_min":0,"x_max":474,"ha":474,"o":"m 264 509 q 319 509 358 488 q 398 468 420 430 q 443 392 448 338 q 454 284 441 217 q 425 135 384 66 q 344 -3 285 -54 q 226 -105 152 -136 q 77 -166 -6 -170 q -13 -159 -13 -136 q 124 -112 206 -45 q 287 22 324 120 q 294 100 266 92 q 238 85 206 85 q 110 85 69 148 q 28 212 48 318 q 56 361 76 396 q 95 432 123 457 q 151 482 187 496 q 223 509 264 509 z m 349 211 q 359 268 357 314 q 355 361 342 394 q 330 427 306 445 q 283 463 251 463 q 210 463 180 428 q 150 392 139 329 q 131 288 135 254 q 139 221 152 196 q 165 171 186 158 q 208 144 235 144 q 267 144 292 150 q 316 155 340 169 q 346 190 349 211 z"}," ":{"x_min":0,"x_max":180,"ha":180,"o":""},"I":{"x_min":0,"x_max":357,"ha":357,"o":"m 189 549 q 193 574 192 590 q 191 606 184 615 q 177 624 164 628 q 150 633 129 636 q 127 646 126 656 q 126 667 128 679 q 183 676 248 676 q 310 676 370 679 q 369 667 368 656 q 366 646 361 636 q 342 633 329 628 q 316 623 308 614 q 299 604 293 588 q 287 573 283 549 l 210 127 q 205 102 206 86 q 206 70 213 61 q 220 52 234 48 q 247 43 269 40 q 274 20 271 -3 q 211 0 150 0 q 121 0 88 0 q 55 -1 29 -3 q 29 22 37 40 q 57 42 70 46 q 84 51 92 60 q 101 70 106 86 q 111 102 116 127 z"},"H":{"x_min":0,"x_max":756,"ha":756,"o":"m 588 549 q 592 574 591 590 q 590 606 583 615 q 576 624 562 628 q 549 633 528 636 q 526 646 526 656 q 525 667 527 679 q 582 676 647 676 q 709 676 769 679 q 768 667 766 656 q 765 646 760 636 q 741 633 728 628 q 715 623 706 614 q 698 604 692 588 q 686 573 682 549 l 609 127 q 604 102 604 86 q 605 70 612 61 q 619 52 632 48 q 646 43 668 40 q 673 20 670 -3 q 610 0 549 0 q 520 0 487 0 q 454 -1 428 -3 q 428 22 436 40 q 456 42 470 46 q 483 51 492 60 q 500 70 505 86 q 510 102 515 127 l 549 325 q 518 325 478 325 q 437 325 395 324 q 353 324 313 323 q 273 322 243 320 l 210 127 q 205 102 206 86 q 206 70 213 61 q 220 52 234 48 q 247 43 269 40 q 274 20 271 -3 q 211 0 150 0 q 121 0 88 0 q 55 -1 29 -3 q 29 22 37 40 q 57 42 70 46 q 84 51 92 60 q 101 70 106 86 q 111 102 116 127 l 189 549 q 193 574 192 590 q 191 606 184 615 q 177 624 164 628 q 150 633 129 636 q 127 646 126 656 q 126 667 128 679 q 183 676 248 676 q 310 676 370 679 q 369 667 368 656 q 366 646 361 636 q 342 633 329 628 q 316 623 308 614 q 299 604 293 588 q 287 573 283 549 l 252 368 l 557 368 z"},"4":{"x_min":0,"x_max":459,"ha":459,"o":"m 381 85 q 401 85 413 70 q 405 55 399 37 q 393 19 390 0 l 310 0 l 282 -153 q 239 -156 203 -171 q 189 -162 193 -136 l 218 -1 q 135 -2 81 -3 q 27 -4 -9 -6 q -17 3 -20 12 q -22 22 -22 36 q 76 151 170 268 q 263 385 355 506 q 368 506 380 504 q 392 501 400 497 l 325 85 z m 257 215 q 266 265 272 296 q 279 327 287 353 q 268 327 242 293 q 216 259 173 204 q 149 174 126 144 q 102 115 76 85 l 233 85 z"},"~":{"x_min":0,"x_max":547,"ha":547,"o":"m 183 335 q 211 335 238 326 q 265 317 292 306 q 318 296 345 287 q 372 278 399 278 q 424 278 450 288 q 475 298 502 323 q 522 323 532 307 q 492 255 456 236 q 420 216 388 216 q 361 216 336 226 q 310 235 284 247 q 259 259 233 268 q 207 278 179 278 q 150 278 120 264 q 89 250 54 213 q 36 221 33 239 q 74 294 111 314 q 148 335 183 335 z"},"D":{"x_min":0,"x_max":725,"ha":725,"o":"m 190 554 q 194 579 192 594 q 191 610 184 618 q 176 627 162 631 q 149 635 130 637 q 127 648 126 658 q 126 669 128 679 q 160 677 198 676 q 235 676 266 676 q 298 676 330 678 q 362 679 392 679 q 437 679 482 673 q 527 667 567 652 q 607 637 640 611 q 673 585 694 546 q 715 506 721 451 q 727 396 713 323 q 698 240 660 180 q 623 119 566 79 q 510 39 438 20 q 365 0 279 0 l 276 0 q 249 0 217 0 q 185 0 152 0 q 119 -1 86 -2 q 54 -2 25 -3 q 27 22 33 40 q 55 43 70 48 q 84 54 93 65 q 102 76 108 95 q 113 114 118 143 z m 211 133 q 206 105 206 88 q 206 71 214 62 q 221 52 238 48 q 254 45 283 45 q 344 45 398 60 q 451 75 493 108 q 535 140 565 191 q 595 242 609 315 q 627 408 614 470 q 600 531 565 568 q 530 605 478 620 q 426 636 367 636 q 347 636 330 634 q 313 632 296 628 z"},"^":{"x_min":0,"x_max":477,"ha":477,"o":"m 343 685 q 357 694 370 695 q 383 696 394 694 q 406 663 422 626 q 438 588 456 549 q 473 510 490 472 q 507 435 522 404 q 515 399 503 396 q 491 392 480 394 l 367 651 q 336 618 304 583 q 271 548 240 513 q 208 478 178 444 q 149 411 124 383 q 109 401 109 430 z"},"0":{"x_min":0,"x_max":592,"ha":592,"o":"m 333 509 q 394 509 442 489 q 489 469 518 432 q 548 396 558 346 q 569 295 557 234 q 546 180 520 136 q 495 91 458 58 q 421 26 374 8 q 328 -9 276 -9 q 213 -9 164 12 q 116 33 86 70 q 55 108 44 160 q 33 213 45 277 q 55 329 82 372 q 108 414 146 444 q 184 475 232 492 q 279 509 333 509 z m 314 461 q 246 461 200 415 q 155 369 141 291 q 130 235 136 188 q 142 142 162 108 q 181 75 214 56 q 246 38 290 38 q 349 38 394 82 q 440 125 459 217 q 469 271 464 316 q 458 361 439 394 q 420 426 388 444 q 356 461 314 461 z"},"F":{"x_min":0,"x_max":516,"ha":516,"o":"m 187 554 q 191 577 191 592 q 191 606 185 615 q 179 624 166 628 q 152 633 130 636 q 125 657 128 679 q 160 677 200 676 q 241 676 300 676 q 358 676 422 676 q 485 677 563 679 q 558 641 556 596 q 554 551 556 516 q 537 508 506 509 q 505 541 500 564 q 496 587 482 602 q 468 617 440 624 q 412 631 364 631 l 292 631 l 243 342 l 291 342 q 322 342 344 346 q 366 350 381 360 q 396 369 404 385 q 413 401 417 426 q 430 428 440 428 q 451 429 465 427 q 459 402 454 378 q 449 355 444 316 q 439 280 436 253 q 434 226 432 201 q 418 203 406 206 q 395 208 386 214 q 390 264 369 282 q 348 299 287 299 l 236 299 l 209 142 q 204 113 203 95 q 202 77 209 66 q 216 56 233 50 q 250 44 280 40 q 283 30 284 20 q 284 11 283 -3 q 245 -1 218 0 q 190 0 156 0 q 119 0 89 0 q 59 -1 25 -3 q 26 22 33 40 q 55 44 69 50 q 83 55 92 65 q 100 75 104 91 q 109 107 114 132 z"},"`":{"x_min":0,"x_max":266,"ha":266,"o":"m 136 704 q 156 712 182 713 q 207 714 230 706 q 237 664 247 622 q 257 581 274 536 q 267 533 257 534 q 247 534 239 538 q 220 576 192 622 q 164 669 136 704 z"},"k":{"x_min":0,"x_max":436,"ha":436,"o":"m 155 309 q 184 379 226 423 q 268 467 327 467 q 375 467 398 436 q 421 404 413 360 q 408 333 390 310 q 373 286 348 268 q 322 250 290 238 q 259 226 226 222 q 258 195 300 107 q 314 78 324 70 q 333 62 347 62 q 357 62 367 68 q 377 75 392 91 q 404 78 410 59 q 386 30 356 10 q 327 -9 306 -9 q 286 -9 273 -4 q 260 0 250 10 q 239 21 230 39 q 222 57 212 83 q 198 119 184 146 q 171 172 151 202 q 149 195 148 189 q 147 183 146 176 l 115 0 l 24 0 l 118 534 q 124 569 126 588 q 128 608 123 618 q 118 627 104 629 q 91 631 67 631 q 65 654 73 669 q 85 670 104 674 q 122 679 142 685 q 161 691 179 698 q 197 704 208 710 q 239 700 229 646 q 216 574 207 525 q 198 476 190 440 q 182 403 174 373 q 165 343 154 309 z m 321 342 q 326 368 314 382 q 302 396 282 396 q 269 396 254 386 q 239 375 223 356 q 207 336 192 309 q 178 282 166 250 q 227 256 270 278 q 314 301 321 342 z"},"u":{"x_min":0,"x_max":508,"ha":508,"o":"m 308 151 q 296 126 276 98 q 257 70 232 46 q 207 22 179 6 q 151 -9 122 -9 q 87 -9 71 12 q 55 34 52 68 q 48 102 54 144 q 60 185 70 225 q 85 285 92 318 q 98 351 95 366 q 92 382 79 385 q 66 388 41 388 q 39 397 40 408 q 41 418 46 426 q 57 427 76 432 q 94 436 114 442 q 134 448 152 454 q 169 461 179 467 q 190 460 196 452 q 201 444 200 420 q 198 396 188 349 q 177 302 157 218 q 119 65 174 65 q 188 65 211 82 q 234 98 259 132 q 284 166 306 217 q 329 268 342 337 l 365 458 l 456 458 l 407 210 q 396 157 391 127 q 386 97 385 82 q 384 67 388 64 q 392 60 401 60 q 412 60 422 67 q 433 74 450 91 q 457 85 462 76 q 466 68 469 59 q 445 31 414 11 q 384 -9 357 -9 q 311 -9 298 22 q 284 53 294 103 q 299 129 310 151 z"},"]":{"x_min":0,"x_max":299,"ha":299,"o":"m 162 -269 q 142 -268 115 -268 q 88 -267 60 -267 q 32 -267 6 -268 q -19 -268 -37 -269 q -38 -259 -36 -248 q -33 -237 -27 -229 q 11 -228 36 -224 q 61 -220 76 -212 q 92 -205 100 -192 q 108 -178 112 -157 l 247 610 q 252 639 250 656 q 248 673 235 682 q 222 692 198 696 q 173 701 134 704 q 134 715 138 726 q 141 736 147 742 q 165 741 191 740 q 217 740 244 740 q 272 740 298 740 q 323 741 340 742 z"},"U":{"x_min":0,"x_max":635,"ha":635,"o":"m 150 554 q 154 577 154 592 q 155 607 150 616 q 146 625 136 630 q 125 634 109 636 q 105 653 108 679 q 143 677 166 676 q 190 676 219 676 q 251 676 276 676 q 302 677 339 679 q 338 667 336 657 q 335 647 330 636 q 307 634 292 630 q 277 625 268 615 q 258 605 252 588 q 247 571 242 544 l 193 260 q 183 203 188 162 q 192 121 210 94 q 227 68 256 56 q 284 44 321 44 q 395 44 444 96 q 492 149 509 246 l 556 514 q 562 546 562 566 q 562 587 556 600 q 550 613 536 621 q 523 629 502 636 q 498 655 501 679 q 533 677 556 676 q 579 676 600 676 q 612 676 622 676 q 633 676 644 676 q 656 677 670 678 q 683 678 700 679 q 700 657 691 636 q 670 629 656 621 q 642 613 633 599 q 624 585 618 562 q 611 540 605 504 l 561 255 q 537 119 474 55 q 410 -9 301 -9 q 174 -9 126 61 q 77 131 99 256 z"},"o":{"x_min":0,"x_max":455,"ha":455,"o":"m 272 467 q 315 467 348 450 q 380 434 400 403 q 419 372 424 329 q 430 286 420 234 q 410 179 388 134 q 365 90 334 58 q 302 26 262 8 q 223 -9 179 -9 q 136 -9 104 7 q 73 23 54 52 q 34 82 28 124 q 23 165 33 215 q 44 272 66 318 q 89 365 120 398 q 152 431 190 449 q 229 467 272 467 z m 259 418 q 236 418 216 404 q 195 391 177 366 q 159 341 146 306 q 132 271 124 228 q 107 142 124 90 q 141 38 186 38 q 209 38 230 52 q 252 65 270 90 q 288 114 302 148 q 316 182 324 224 q 340 311 322 364 q 305 418 259 418 z"},"N":{"x_min":0,"x_max":714,"ha":714,"o":"m 191 601 q 180 620 167 627 q 154 634 130 636 q 125 654 128 679 q 143 677 157 676 q 171 676 188 676 q 231 676 257 679 q 336 551 415 416 q 494 282 566 151 q 597 323 626 499 q 632 538 633 563 q 634 588 628 603 q 621 618 608 625 q 594 632 572 636 q 570 646 570 656 q 569 667 571 679 q 593 677 618 676 q 642 676 662 676 q 685 676 712 676 q 739 677 759 679 q 759 670 757 658 q 755 646 751 636 q 734 631 722 622 q 711 614 702 598 q 694 581 688 555 q 681 529 675 489 q 655 364 634 242 q 613 120 590 -4 q 582 -7 571 -8 q 560 -9 549 -9 q 473 128 394 262 q 316 397 234 531 q 220 443 204 356 q 189 270 172 182 q 164 142 163 116 q 162 91 168 75 q 174 59 188 52 q 203 44 226 40 q 231 23 228 -3 q 198 -1 168 0 q 139 0 119 0 q 96 0 76 0 q 57 -1 24 -3 q 25 21 31 40 q 50 43 64 50 q 77 58 87 73 q 97 88 104 112 q 112 136 119 172 q 139 278 158 384 q 176 490 194 596 z"},"+":{"x_min":0,"x_max":533,"ha":533,"o":"m 511 291 q 513 262 500 242 l 292 242 q 281 183 271 126 q 261 68 250 8 q 237 4 223 6 q 209 7 199 15 l 242 241 q 187 241 134 240 q 81 240 36 239 q 34 271 49 291 l 252 291 l 292 502 q 319 513 344 502 q 333 448 322 396 q 312 344 302 291 z"},"G":{"x_min":0,"x_max":665,"ha":665,"o":"m 453 685 q 531 685 585 670 q 639 656 687 626 q 674 591 666 556 q 659 520 654 476 q 631 466 600 474 q 606 529 599 562 q 592 596 574 614 q 555 632 526 638 q 498 644 461 644 q 395 644 342 622 q 289 599 250 558 q 212 516 188 459 q 165 402 158 333 q 152 278 158 226 q 164 173 186 132 q 208 90 248 65 q 288 40 349 40 q 379 40 403 43 q 427 46 453 56 q 464 60 472 66 q 479 71 484 81 q 489 91 493 108 q 497 124 502 151 q 510 195 512 220 q 514 246 508 260 q 501 273 486 278 q 470 282 442 284 q 438 305 441 327 q 474 325 504 324 q 533 324 564 324 q 579 324 592 324 q 605 324 618 324 q 632 325 647 326 q 662 326 681 327 q 680 302 672 284 q 656 282 646 278 q 635 274 628 262 q 620 249 614 225 q 607 201 600 161 q 592 121 591 101 q 590 81 596 66 q 548 34 477 12 q 406 -9 321 -9 q 247 -9 192 16 q 137 41 102 86 q 68 131 54 192 q 41 254 51 328 q 63 423 102 490 q 141 558 196 602 q 252 645 318 665 q 385 685 453 685 z"},"q":{"x_min":0,"x_max":462,"ha":462,"o":"m 296 178 q 284 147 264 114 q 243 81 217 54 q 191 26 161 8 q 131 -9 100 -9 q 50 -9 29 41 q 8 91 30 202 q 42 260 67 308 q 92 357 128 392 q 163 427 206 447 q 250 467 299 467 q 349 467 381 455 q 413 443 438 417 q 431 406 424 388 q 417 370 410 346 q 403 323 396 296 q 390 269 385 241 l 300 -242 l 209 -242 l 261 53 q 265 76 275 110 q 285 145 298 178 z m 335 406 q 309 416 274 416 q 243 416 219 404 q 195 391 177 369 q 159 347 146 316 q 134 285 127 248 q 109 163 118 118 q 126 72 156 72 q 169 72 190 90 q 212 108 236 142 q 259 176 281 225 q 303 274 318 336 z"},"d":{"x_min":0,"x_max":490,"ha":490,"o":"m 379 177 q 372 137 368 114 q 365 90 365 78 q 365 66 369 63 q 373 60 380 60 q 391 60 403 66 q 415 73 435 90 q 442 83 446 76 q 450 68 453 59 q 429 31 398 11 q 366 -9 340 -9 q 304 -9 288 8 q 273 25 270 50 q 268 75 274 104 q 281 133 288 157 l 287 157 q 273 128 253 98 q 233 69 209 45 q 185 21 157 6 q 129 -9 100 -9 q 50 -9 29 41 q 8 91 30 202 q 42 260 67 308 q 92 357 128 392 q 163 427 206 447 q 250 467 299 467 q 318 467 341 462 q 342 478 344 496 q 347 514 350 534 q 356 569 358 588 q 360 608 355 618 q 350 627 336 629 q 323 631 299 631 q 299 642 300 652 q 300 661 305 669 q 317 670 336 674 q 354 679 374 685 q 393 691 411 698 q 429 704 440 710 q 470 700 461 646 z m 335 406 q 309 416 274 416 q 243 416 219 404 q 195 391 177 369 q 159 347 146 316 q 134 285 127 248 q 109 163 118 118 q 126 72 156 72 q 169 72 190 90 q 212 108 236 142 q 259 176 282 225 q 304 274 318 336 z"},"1":{"x_min":0,"x_max":317,"ha":317,"o":"m 140 373 q 150 423 136 439 q 121 455 80 460 q 78 470 78 480 q 77 491 79 503 q 134 500 197 500 q 259 500 319 503 q 318 491 316 480 q 315 470 310 460 q 291 457 278 452 q 265 447 256 438 q 248 428 242 412 q 236 397 232 373 l 185 127 q 180 101 180 86 q 181 70 188 60 q 194 51 208 47 q 222 43 244 40 q 249 20 246 -3 q 186 0 125 0 q 96 0 64 0 q 32 -1 6 -3 q 6 22 14 40 q 34 42 47 46 q 60 51 68 60 q 77 70 82 86 q 88 101 93 127 z"},"5":{"x_min":0,"x_max":404,"ha":404,"o":"m 122 503 q 164 501 206 500 q 247 500 295 500 q 329 500 344 516 q 359 533 363 553 q 388 556 409 546 q 401 520 397 490 q 393 459 391 428 q 380 410 355 410 q 298 410 244 410 q 190 409 138 405 l 107 303 q 168 296 217 274 q 266 252 298 218 q 331 184 344 140 q 358 96 348 45 q 339 -3 314 -43 q 288 -83 250 -112 q 212 -140 162 -156 q 113 -171 56 -171 q 28 -171 0 -164 q -27 -157 -47 -143 q -44 -119 -27 -106 q -9 -114 12 -118 q 34 -123 66 -123 q 100 -123 131 -112 q 162 -101 187 -80 q 212 -60 229 -32 q 246 -4 253 30 q 270 112 218 162 q 167 211 59 221 q 42 230 41 249 z"}}}
